# Project-owned organic pond surface for SoStylized water materials.
# The irregular perimeter prevents the hard rectangular shoreline that the pack plane exposed.
o RedOasisPoolOrganic
v 0.000 0.000 0.000
v 550.000 0.000 0.000
v 540.000 130.000 0.000
v 450.000 230.000 0.000
v 390.000 340.000 0.000
v 260.000 410.000 0.000
v 120.000 430.000 0.000
v 0.000 470.000 0.000
v -130.000 420.000 0.000
v -280.000 400.000 0.000
v -390.000 330.000 0.000
v -470.000 220.000 0.000
v -520.000 110.000 0.000
v -560.000 -10.000 0.000
v -500.000 -130.000 0.000
v -440.000 -250.000 0.000
v -330.000 -330.000 0.000
v -200.000 -440.000 0.000
v -70.000 -420.000 0.000
v 70.000 -460.000 0.000
v 210.000 -400.000 0.000
v 330.000 -350.000 0.000
v 430.000 -260.000 0.000
v 500.000 -140.000 0.000
v 530.000 -60.000 0.000
vt 0.500 0.500
vt 0.990 0.500
vt 0.980 0.640
vt 0.900 0.740
vt 0.850 0.860
vt 0.730 0.940
vt 0.610 0.960
vt 0.500 1.000
vt 0.380 0.950
vt 0.250 0.930
vt 0.150 0.850
vt 0.080 0.730
vt 0.040 0.620
vt 0.000 0.490
vt 0.050 0.360
vt 0.110 0.230
vt 0.210 0.150
vt 0.320 0.030
vt 0.440 0.050
vt 0.560 0.010
vt 0.690 0.080
vt 0.790 0.130
vt 0.880 0.220
vt 0.950 0.350
vt 0.970 0.440
vn 0.000 0.000 1.000
usemtl RedOasisWater
f 1/1/1 2/2/1 3/3/1
f 1/1/1 3/3/1 4/4/1
f 1/1/1 4/4/1 5/5/1
f 1/1/1 5/5/1 6/6/1
f 1/1/1 6/6/1 7/7/1
f 1/1/1 7/7/1 8/8/1
f 1/1/1 8/8/1 9/9/1
f 1/1/1 9/9/1 10/10/1
f 1/1/1 10/10/1 11/11/1
f 1/1/1 11/11/1 12/12/1
f 1/1/1 12/12/1 13/13/1
f 1/1/1 13/13/1 14/14/1
f 1/1/1 14/14/1 15/15/1
f 1/1/1 15/15/1 16/16/1
f 1/1/1 16/16/1 17/17/1
f 1/1/1 17/17/1 18/18/1
f 1/1/1 18/18/1 19/19/1
f 1/1/1 19/19/1 20/20/1
f 1/1/1 20/20/1 21/21/1
f 1/1/1 21/21/1 22/22/1
f 1/1/1 22/22/1 23/23/1
f 1/1/1 23/23/1 24/24/1
f 1/1/1 24/24/1 25/25/1
f 1/1/1 25/25/1 2/2/1
